<svg version="1" xmlns="http://www.w3.org/2000/svg" width="933.333" height="933.333" viewBox="0 0 700.000000 700.000000"><path d="M0 350v350h700V0H0v350zM374.6 36c87.3 6.9 166.6 49.4 222.9 119.5 23 28.5 44.4 70 55 106.6 8.7 30.1 11.9 53.1 11.9 87.4 0 27.9-1.2 40.6-6 64C640.8 498 589.8 571.1 516.5 617c-93.7 58.7-211 63.8-309 13.6-95.1-48.7-157.6-138.9-170.7-246.1-1.9-16.1-1.6-57.7.5-73.5 3.9-27.9 10.5-53.5 20.1-77.3 42.8-106.6 140-181.9 253.1-196.1 21-2.7 43.3-3.2 64.1-1.6z"/><path d="M324 50.6c-43.3 5.2-74 13.9-107.2 30.4-15.3 7.7-18.6 9.6-32.9 19.1-17.4 11.6-30.9 22.7-45.9 37.8-24.4 24.5-41.3 47.7-55.9 76.9-21 41.8-30.6 80.4-31.8 126.9-.8 30 1 48.7 7.3 76.2l2.6 11.4 65.2-65.2 65.2-65.2L221 329l30.4 30.1 78-78 78.1-78.1 115 115c63.2 63.3 115.3 115 115.7 115 1 0 6.7-24.8 8.9-39.2 2.7-17.1 3.7-53.5 2-71.5-8.8-92.9-60.3-176.3-140.3-226.9-14-8.8-41.5-22.3-57.3-27.9-16.4-5.9-40-11.9-57.5-14.6-10.6-1.6-19.3-2.2-40-2.4-14.6-.2-28.1-.1-30 .1z"/></svg>