<svg viewBox="0 0 130 36" xmlns="http://www.w3.org/2000/svg"><defs><linearGradient id="a"><stop style="stop-color:#ea413b"/></linearGradient><linearGradient id="b"><stop style="stop-color:#eaeaea"/></linearGradient></defs><path style="fill:url(#a)" d="M0 0h130v36H0z"/><path d="M5.268 12.265v2.91h2.15v2.54h-2.15v3.39c0 .473.093.797.28.97.18.173.427.26.74.26.14 0 .327-.02.56-.06.233-.04.417-.09.55-.15v2c-.273.12-.657.217-1.15.29-.487.073-.903.11-1.25.11-1.053 0-1.863-.193-2.43-.58-.567-.38-.85-1.03-.85-1.95v-4.28h-1v-2.54h1.15l1.23-2.91h2.17zm6.976 3.99c.574-.84 1.324-1.26 2.25-1.26h.51c.487 0 .937.12 1.35.36.407.24.73.567.97.98.24.413.36.863.36 1.35v6.64h-3.54v-5.73c0-.3-.093-.553-.28-.76a.87.87 0 0 0-.67-.31.853.853 0 0 0-.67.31c-.186.207-.28.46-.28.76v5.73h-3.54v-12.89h3.54v4.82zm12.097-1.26c.92 0 1.71.177 2.37.53.66.353 1.166.84 1.52 1.46.353.62.53 1.33.53 2.13v1.11h-5.96v.86c0 .407.126.717.38.93.26.213.593.32 1 .32.413 0 .73-.127.95-.38.226-.26.34-.617.34-1.07h3.27c0 .68-.177 1.297-.53 1.85-.354.547-.867.977-1.54 1.29-.674.32-1.47.48-2.39.48h-.26c-.96 0-1.817-.177-2.57-.53a4.162 4.162 0 0 1-1.79-1.54c-.44-.673-.66-1.477-.66-2.41v-.55c0-.933.206-1.737.62-2.41a4.003 4.003 0 0 1 1.73-1.54c.74-.353 1.586-.53 2.54-.53h.45zm-.31 2.17c-.347 0-.637.123-.87.37-.24.24-.36.533-.36.88v.25h2.47v-.25c0-.347-.12-.64-.36-.88a1.18 1.18 0 0 0-.88-.37zm18.537 7.16h-2.83l-.32-1.06c-.653.827-1.423 1.24-2.31 1.24-.74 0-1.403-.173-1.99-.52-.593-.347-1.06-.87-1.4-1.57-.34-.693-.51-1.547-.51-2.56v-.2c0-1.013.153-1.87.46-2.57.3-.7.71-1.223 1.23-1.57s1.11-.52 1.77-.52c1.12 0 1.907.377 2.36 1.13v-4.69h3.54v12.89zm-4.65-7.09c-.313 0-.577.123-.79.37-.213.247-.32.54-.32.88v2.6c0 .347.107.643.32.89.213.24.477.36.79.36.307 0 .57-.12.79-.36.213-.247.32-.543.32-.89v-2.6c0-.34-.107-.633-.32-.88a1.022 1.022 0 0 0-.79-.37zm11.362-2.24c.92 0 1.71.177 2.37.53a3.73 3.73 0 0 1 1.52 1.46c.354.62.53 1.33.53 2.13v1.11h-5.96v.86c0 .407.127.717.38.93.26.213.594.32 1 .32.414 0 .73-.127.95-.38.227-.26.34-.617.34-1.07h3.27a3.36 3.36 0 0 1-.53 1.85c-.353.547-.866.977-1.54 1.29-.673.32-1.47.48-2.39.48h-.26c-.96 0-1.816-.177-2.57-.53a4.168 4.168 0 0 1-1.79-1.54c-.44-.673-.66-1.477-.66-2.41v-.55c0-.933.207-1.737.62-2.41a4.008 4.008 0 0 1 1.73-1.54c.74-.353 1.587-.53 2.54-.53h.45zm-.31 2.17a1.15 1.15 0 0 0-.87.37c-.24.24-.36.533-.36.88v.25h2.47v-.25c0-.347-.12-.64-.36-.88a1.179 1.179 0 0 0-.88-.37zm10.113-5.87c.346 0 .763.037 1.25.11.493.067.876.16 1.15.28v1.97a3 3 0 0 0-.56-.12c-.24-.04-.424-.06-.55-.06-.314 0-.564.063-.75.19-.18.127-.27.41-.27.85v.66h2.15v2.54h-2.15v6.61h-3.55v-6.61h-1.14v-2.54h1.14v-1.18c0-.927.293-1.61.88-2.05.586-.433 1.386-.65 2.4-.65zm5.82.14v2.56h-3.52v-2.56h3.52zm0 3.76v9.13h-3.52v-9.13h3.52zm7.431-.2c1.387 0 2.447.27 3.18.81.733.54 1.1 1.237 1.1 2.09v3.78c0 .227.053.393.16.5.113.107.247.16.4.16.227 0 .433-.053.62-.16v1.92c-.38.273-.98.41-1.8.41-.767 0-1.37-.13-1.81-.39-.44-.253-.713-.607-.82-1.06a5.11 5.11 0 0 1-1.27 1.06c-.46.26-1.023.39-1.69.39-.953 0-1.73-.187-2.33-.56-.593-.367-.89-1.093-.89-2.18 0-.82.233-1.457.7-1.91.467-.447 1.13-.757 1.99-.93.867-.173 1.97-.26 3.31-.26v-.52c0-.333-.113-.593-.34-.78-.22-.193-.497-.29-.83-.29-.273 0-.533.08-.78.24-.24.16-.36.36-.36.6v.07h-3.4a.92.92 0 0 1-.02-.25c0-.513.177-.973.53-1.38.347-.413.847-.743 1.5-.99s1.407-.37 2.26-.37h.59zm.85 5.3c-.793 0-1.373.107-1.74.32-.373.207-.56.493-.56.86 0 .573.36.86 1.08.86.333 0 .62-.117.86-.35.24-.233.36-.533.36-.9v-.79zm11.934-5.3a2.645 2.645 0 0 1 2.32 1.34c.24.413.36.863.36 1.35v6.64h-3.54v-5.73c0-.3-.094-.553-.28-.76a.872.872 0 0 0-.67-.31.852.852 0 0 0-.67.31c-.187.207-.28.46-.28.76v5.73h-3.54v-9.15h2.66l.36 1.33c.653-1.007 1.576-1.51 2.77-1.51h.51zm8.476-2.73v2.91h2.15v2.54h-2.15v3.39c0 .473.094.797.28.97.18.173.427.26.74.26.14 0 .327-.02.56-.06.234-.04.417-.09.55-.15v2c-.273.12-.656.217-1.15.29-.486.073-.903.11-1.25.11-1.053 0-1.863-.193-2.43-.58-.566-.38-.85-1.03-.85-1.95v-4.28h-1v-2.54h1.15l1.23-2.91h2.17zm12.322 2.73c.793 0 1.406.22 1.84.66.433.433.65 1.033.65 1.8v.3l-.03.68-.04.45h-2.9v-.43a.96.96 0 0 0-.22-.64c-.154-.173-.33-.26-.53-.26a.71.71 0 0 0-.55.26.955.955 0 0 0-.22.64v5.87h-3.45v-9.15h2.64l.4 1.33c.073-.147.21-.34.41-.58.2-.233.473-.447.82-.64.346-.193.74-.29 1.18-.29zm8.522 0c.92 0 1.71.177 2.37.53a3.73 3.73 0 0 1 1.52 1.46c.354.62.53 1.33.53 2.13v1.11h-5.96v.86c0 .407.127.717.38.93.26.213.594.32 1 .32.414 0 .73-.127.95-.38.227-.26.34-.617.34-1.07h3.27a3.36 3.36 0 0 1-.53 1.85c-.353.547-.866.977-1.54 1.29-.673.32-1.47.48-2.39.48h-.26c-.96 0-1.816-.177-2.57-.53a4.168 4.168 0 0 1-1.79-1.54c-.44-.673-.66-1.477-.66-2.41v-.55c0-.933.207-1.737.62-2.41a4.008 4.008 0 0 1 1.73-1.54c.74-.353 1.587-.53 2.54-.53h.45zm-.31 2.17a1.15 1.15 0 0 0-.87.37c-.24.24-.36.533-.36.88v.25h2.47v-.25c0-.347-.12-.64-.36-.88a1.179 1.179 0 0 0-.88-.37zm15.103 7.16h-2.83l-.32-1.06c-.654.827-1.424 1.24-2.31 1.24-.74 0-1.404-.173-1.99-.52-.594-.347-1.06-.87-1.4-1.57-.34-.693-.51-1.547-.51-2.56v-.2c0-1.013.153-1.87.46-2.57.3-.7.71-1.223 1.23-1.57s1.11-.52 1.77-.52c1.12 0 1.906.377 2.36 1.13v-4.69h3.54v12.89zm-4.65-7.09c-.314 0-.577.123-.79.37-.214.247-.32.54-.32.88v2.6c0 .347.106.643.32.89.213.24.476.36.79.36.306 0 .57-.12.79-.36.213-.247.32-.543.32-.89v-2.6c0-.34-.107-.633-.32-.88a1.023 1.023 0 0 0-.79-.37z" style="fill:url(#b);white-space:pre"/></svg>