<svg viewBox="0 0 500 500" xmlns="http://www.w3.org/2000/svg"><defs><linearGradient id="a"><stop style="stop-color:#eaeaea"/></linearGradient></defs><path style="fill:#ee4540" d="M0 0h500v500H0z"/><path d="M325.794 261.169c-87.788-6.457-161.305 63.135-161.305 149.59a148.92 148.92 0 0 0 6.379 43.187c18.595 61.728 75.923 106.807 143.629 106.807 63.84 0 118.438-40.106 140.059-96.401 8.029-20.946 11.569-44.108 9.218-68.322-6.974-72.134-65.679-129.508-137.98-134.861zM176.517 448.326a142.38 142.38 0 0 1-5.027-37.567c0-81.781 68.976-147.723 151.818-142.75 69.273 4.161 126.168 58.672 133.438 127.67 2.029 19.269.083 37.809-4.946 55.049l-109.897-109.86-74.382 74.35-28.974-28.944-62.03 62.052z" style="fill:url(#a)" transform="matrix(1.5 0 0 1.5 -221.733 -366.13)"/></svg>